<svg height="300px" width="300px" fill="#ffffff" xmlns="http://www.w3.org/2000/svg" viewBox="0 0 100 100" x="0px" y="0px"><defs><style>.a{isolation:isolate;}</style></defs><title>i-39</title><path d="M88.5,6h-77A5.51,5.51,0,0,0,6,11.5V83A11,11,0,0,0,17,94H77.49A5.5,5.5,0,0,0,83,88.5V28a5.5,5.5,0,0,1,5.51-5.49A5.5,5.5,0,0,0,94,17V11.5A5.51,5.51,0,0,0,88.5,6ZM74.75,80.24a5.5,5.5,0,0,1-5.5,5.5H19.76a5.5,5.5,0,0,1-5.5-5.5V19.76a5.5,5.5,0,0,1,5.5-5.5H69.25a5.5,5.5,0,0,1,5.5,5.5Z"/><rect x="19.76" y="25.25" width="49.49" height="49.5"/></svg>